<svg width="86" height="124" viewBox="0 0 86 124" fill="none" xmlns="http://www.w3.org/2000/svg">
<path d="M12.7266 19.8594H73.2734V111.891H12.7266V19.8594Z" fill="#D1DEFF"/>
<path d="M75.6953 7.75H66.0078V2.42188C66.0078 1.08427 64.9235 0 63.5859 0H22.4141C21.0765 0 19.9922 1.08427 19.9922 2.42188V7.75H10.3047C4.963 7.75 0.617188 12.0958 0.617188 17.4375V114.312C0.617188 119.654 4.963 124 10.3047 124H75.6953C81.037 124 85.3828 119.654 85.3828 114.312V17.4375C85.3828 12.0958 81.037 7.75 75.6953 7.75ZM24.8359 4.84375H61.1641V19.8594H24.8359V4.84375ZM80.5391 114.312C80.5391 116.983 78.3662 119.156 75.6953 119.156H10.3047C7.63384 119.156 5.46094 116.983 5.46094 114.312V17.4375C5.46094 14.7667 7.63384 12.5938 10.3047 12.5938H19.9922V22.2812C19.9922 23.6189 21.0765 24.7031 22.4141 24.7031H63.5859C64.9235 24.7031 66.0078 23.6189 66.0078 22.2812V12.5938H75.6953C78.3662 12.5938 80.5391 14.7667 80.5391 17.4375V114.312Z" fill="#23408F"/>
<path d="M36.9453 31.9688H22.4141C21.0765 31.9688 19.9922 33.053 19.9922 34.3906V48.9219C19.9922 50.2595 21.0765 51.3438 22.4141 51.3438H36.9453C38.2829 51.3438 39.3672 50.2595 39.3672 48.9219V34.3906C39.3672 33.053 38.2829 31.9688 36.9453 31.9688ZM34.5234 46.5H24.8359V36.8125H34.5234V46.5Z" fill="#23408F"/>
<path d="M63.5859 46.5H46.6328C45.2952 46.5 44.2109 47.5843 44.2109 48.9219C44.2109 50.2595 45.2952 51.3438 46.6328 51.3438H63.5859C64.9235 51.3438 66.0078 50.2595 66.0078 48.9219C66.0078 47.5843 64.9235 46.5 63.5859 46.5Z" fill="#23408F"/>
<path d="M46.6328 41.6562H56.3203C57.6579 41.6562 58.7422 40.572 58.7422 39.2344C58.7422 37.8968 57.6579 36.8125 56.3203 36.8125H46.6328C45.2952 36.8125 44.2109 37.8968 44.2109 39.2344C44.2109 40.572 45.2952 41.6562 46.6328 41.6562Z" fill="#23408F"/>
<path d="M36.9453 58.6094H22.4141C21.0765 58.6094 19.9922 59.6936 19.9922 61.0312V75.5625C19.9922 76.9001 21.0765 77.9844 22.4141 77.9844H36.9453C38.2829 77.9844 39.3672 76.9001 39.3672 75.5625V61.0312C39.3672 59.6936 38.2829 58.6094 36.9453 58.6094ZM34.5234 73.1406H24.8359V63.4531H34.5234V73.1406Z" fill="#23408F"/>
<path d="M63.5859 73.1406H46.6328C45.2952 73.1406 44.2109 74.2249 44.2109 75.5625C44.2109 76.9001 45.2952 77.9844 46.6328 77.9844H63.5859C64.9235 77.9844 66.0078 76.9001 66.0078 75.5625C66.0078 74.2249 64.9235 73.1406 63.5859 73.1406Z" fill="#23408F"/>
<path d="M46.6328 68.2969H56.3203C57.6579 68.2969 58.7422 67.2126 58.7422 65.875C58.7422 64.5374 57.6579 63.4531 56.3203 63.4531H46.6328C45.2952 63.4531 44.2109 64.5374 44.2109 65.875C44.2109 67.2126 45.2952 68.2969 46.6328 68.2969Z" fill="#23408F"/>
<path d="M36.9453 85.25H22.4141C21.0765 85.25 19.9922 86.3343 19.9922 87.6719V102.203C19.9922 103.541 21.0765 104.625 22.4141 104.625H36.9453C38.2829 104.625 39.3672 103.541 39.3672 102.203V87.6719C39.3672 86.3343 38.2829 85.25 36.9453 85.25ZM34.5234 99.7812H24.8359V90.0938H34.5234V99.7812Z" fill="#23408F"/>
<path d="M63.5859 99.7812H46.6328C45.2952 99.7812 44.2109 100.866 44.2109 102.203C44.2109 103.541 45.2952 104.625 46.6328 104.625H63.5859C64.9235 104.625 66.0078 103.541 66.0078 102.203C66.0078 100.866 64.9235 99.7812 63.5859 99.7812Z" fill="#23408F"/>
<path d="M46.6328 94.9375H56.3203C57.6579 94.9375 58.7422 93.8532 58.7422 92.5156C58.7422 91.178 57.6579 90.0938 56.3203 90.0938H46.6328C45.2952 90.0938 44.2109 91.178 44.2109 92.5156C44.2109 93.8532 45.2952 94.9375 46.6328 94.9375Z" fill="#23408F"/>
</svg>
