<svg width="124" height="124" viewBox="0 0 124 124" fill="none" xmlns="http://www.w3.org/2000/svg">
<g clip-path="url(#clip0_214_5060)">
<path d="M124 45.9878C124 21.2582 103.961 1.21094 79.2418 1.21094C59.3871 1.21094 42.5519 14.1445 36.6948 32.0494C40.0583 31.2417 43.5693 30.8138 47.1803 30.8138C71.8997 30.8138 91.9385 50.8611 91.9385 75.5906C91.9385 80.4569 91.1623 85.1417 89.7276 89.5282C95.8494 88.0572 101.481 85.3273 106.336 81.6283L108.402 80.0798L120.748 81.9102L117.398 69.4029C121.584 62.5897 124 54.5714 124 45.9878Z" fill="#D1DEFF"/>
<path d="M27.6577 83.6425C30.953 83.6425 33.6245 80.97 33.6245 77.6733C33.6245 74.3766 30.953 71.7041 27.6577 71.7041C24.3623 71.7041 21.6909 74.3766 21.6909 77.6733C21.6909 80.97 24.3623 83.6425 27.6577 83.6425Z" fill="#D1DEFF"/>
<path d="M47.1802 83.6425C50.4755 83.6425 53.1469 80.97 53.1469 77.6733C53.1469 74.3766 50.4755 71.7041 47.1802 71.7041C43.8848 71.7041 41.2134 74.3766 41.2134 77.6733C41.2134 80.97 43.8848 83.6425 47.1802 83.6425Z" fill="#D1DEFF"/>
<path d="M66.7029 83.6425C69.9982 83.6425 72.6696 80.97 72.6696 77.6733C72.6696 74.3766 69.9982 71.7041 66.7029 71.7041C63.4075 71.7041 60.7361 74.3766 60.7361 77.6733C60.7361 80.97 63.4075 83.6425 66.7029 83.6425Z" fill="#D1DEFF"/>
<path d="M47.1801 122.789C36.7643 122.789 26.8879 119.458 18.6186 113.157L17.376 112.226L6.0295 113.908C5.22302 114.027 4.40951 113.733 3.86652 113.124C3.32354 112.515 3.12373 111.674 3.33468 110.886L6.41918 99.3697C2.2165 92.1724 0 83.9741 0 75.5903C0 49.5648 21.165 28.3916 47.1801 28.3916C73.1954 28.3916 94.3604 49.5648 94.3604 75.5903C94.3604 101.616 73.1954 122.789 47.1801 122.789ZM18.02 107.26C18.5404 107.26 19.0507 107.428 19.4724 107.744L21.5389 109.293C28.9729 114.957 37.834 117.945 47.1801 117.945C70.5245 117.945 89.5166 98.9449 89.5166 75.5903C89.5166 52.2357 70.5245 33.2353 47.1801 33.2353C23.8356 33.2353 4.84375 52.2359 4.84375 75.5903C4.84375 83.4311 7.00285 91.0896 11.0878 97.7374C11.4361 98.3041 11.5359 98.9893 11.3639 99.632L8.9682 108.576L17.6647 107.287C17.7831 107.269 17.9018 107.26 18.02 107.26Z" fill="#23408F"/>
</g>
<defs>
<clipPath id="clip0_214_5060">
<rect width="124" height="124" fill="white"/>
</clipPath>
</defs>
</svg>
