<svg width="24" height="24" viewBox="0 0 24 24" fill="none" xmlns="http://www.w3.org/2000/svg">
<path d="M2 13.0416L1.25168 12.9914L1.25 13.0165L1.25 13.0416L2 13.0416ZM2.02437 12.6779L2.7727 12.7281L2.7727 12.7281L2.02437 12.6779ZM21.9756 12.6779L22.7239 12.6278L22.7239 12.6278L21.9756 12.6779ZM22 13.0416H22.75V13.0165L22.7483 12.9914L22 13.0416ZM13.8341 3.1869L13.6829 3.9215L13.6829 3.9215L13.8341 3.1869ZM10.1659 3.1869L10.3171 3.9215L10.3171 3.9215L10.1659 3.1869ZM15.5896 17.8012L16.3264 17.6612L16.3264 17.6612L15.5896 17.8012ZM15.5896 15.1035L14.8528 14.9635L15.5896 15.1035ZM18.5607 12.0367L18.3521 11.3163L18.3521 11.3163L18.5607 12.0367ZM19.4903 11.9047L19.4903 12.6547L19.4903 11.9047ZM19.4903 21L19.4903 21.75L19.4903 21ZM18.5607 20.868L18.7694 20.1476L18.7694 20.1476L18.5607 20.868ZM22 14.4727L21.25 14.4727V14.4727H22ZM18.2698 12.121L18.4784 12.8414L18.4784 12.8414L18.2698 12.121ZM18.2698 20.7837L18.0611 21.5041L18.0611 21.5041L18.2698 20.7837ZM22 18.432L21.25 18.432L21.25 18.432L22 18.432ZM8.41041 17.8012L7.67359 17.6612L8.41041 17.8012ZM8.41041 15.1035L7.67359 15.2435L8.41041 15.1035ZM5.43924 12.0367L5.2306 12.7571L5.23061 12.7571L5.43924 12.0367ZM4.50968 11.9047L4.50968 12.6547L4.50968 11.9047ZM4.50968 21L4.50968 21.75L4.50968 21ZM5.43924 20.868L5.64788 21.5884L5.64789 21.5884L5.43924 20.868ZM2.00001 14.4727L2.75001 14.4727L2.75001 14.4727L2.00001 14.4727ZM5.7302 12.121L5.93884 11.4006L5.93884 11.4006L5.7302 12.121ZM5.7302 20.7837L5.52156 20.0633L5.52156 20.0633L5.7302 20.7837ZM2.00001 18.432L2.75001 18.432L2.75001 18.432L2.00001 18.432ZM2.75 17.0208L2.75 13.0416L1.25 13.0416L1.25 17.0208L2.75 17.0208ZM2.74832 13.0917L2.7727 12.7281L1.27605 12.6278L1.25168 12.9914L2.74832 13.0917ZM21.2273 12.7281L21.2517 13.0917L22.7483 12.9914L22.7239 12.6278L21.2273 12.7281ZM21.25 13.0416V17.0208H22.75V13.0416H21.25ZM22.7239 12.6278C22.3884 7.62245 18.8197 3.44745 13.9853 2.4523L13.6829 3.9215C17.8363 4.77648 20.9355 8.37459 21.2273 12.7281L22.7239 12.6278ZM10.3171 3.9215C11.428 3.69283 12.572 3.69283 13.6829 3.9215L13.9853 2.4523C12.675 2.18257 11.3251 2.18257 10.0147 2.4523L10.3171 3.9215ZM2.7727 12.7281C3.06451 8.37459 6.16366 4.77648 10.3171 3.9215L10.0147 2.4523C5.18028 3.44746 1.61156 7.62245 1.27605 12.6278L2.7727 12.7281ZM18.7694 20.1476L18.4784 20.0633L18.0611 21.5041L18.3521 21.5884L18.7694 20.1476ZM18.4784 12.8414L18.7694 12.7571L18.3521 11.3163L18.0611 11.4006L18.4784 12.8414ZM16.3264 17.6612C16.1747 16.8628 16.1747 16.0419 16.3264 15.2435L14.8528 14.9635C14.6659 15.9469 14.6659 16.9578 14.8528 17.9411L16.3264 17.6612ZM18.7694 12.7571C19.0041 12.6891 19.2467 12.6547 19.4903 12.6547L19.4903 11.1547C19.1053 11.1547 18.7222 11.2091 18.3521 11.3163L18.7694 12.7571ZM19.4903 20.25C19.2467 20.25 19.0041 20.2156 18.7694 20.1476L18.3521 21.5884C18.7222 21.6956 19.1053 21.75 19.4903 21.75L19.4903 20.25ZM19.4903 12.6547C20.446 12.6547 21.25 13.4523 21.25 14.4727L22.75 14.4727C22.75 12.6565 21.3067 11.1547 19.4903 11.1547L19.4903 12.6547ZM18.0611 11.4006C16.4111 11.8785 15.1761 13.2614 14.8528 14.9635L16.3264 15.2435C16.5471 14.0818 17.385 13.158 18.4784 12.8414L18.0611 11.4006ZM18.4784 20.0633C17.385 19.7467 16.5471 18.8228 16.3264 17.6612L14.8528 17.9411C15.1761 19.6433 16.4111 21.0262 18.0611 21.5041L18.4784 20.0633ZM19.4903 21.75C21.3067 21.75 22.75 20.2482 22.75 18.432L21.25 18.432C21.25 19.4524 20.446 20.25 19.4903 20.25L19.4903 21.75ZM5.64789 21.5884L5.93885 21.5041L5.52156 20.0633L5.2306 20.1476L5.64789 21.5884ZM5.93884 11.4006L5.64788 11.3163L5.23061 12.7571L5.52157 12.8414L5.93884 11.4006ZM9.14723 17.9411C9.33405 16.9578 9.33405 15.9469 9.14723 14.9635L7.67359 15.2435C7.82526 16.0419 7.82526 16.8628 7.67359 17.6612L9.14723 17.9411ZM5.64788 11.3163C5.27776 11.2091 4.89472 11.1547 4.50968 11.1547L4.50968 12.6547C4.75328 12.6547 4.99586 12.6891 5.2306 12.7571L5.64788 11.3163ZM4.50968 21.75C4.89472 21.75 5.27776 21.6956 5.64788 21.5884L5.2306 20.1476C4.99586 20.2156 4.75328 20.25 4.50968 20.25L4.50968 21.75ZM4.50968 11.1547C2.69327 11.1547 1.25 12.6565 1.25001 14.4727L2.75001 14.4727C2.75 13.4523 3.55398 12.6547 4.50968 12.6547L4.50968 11.1547ZM5.52156 12.8414C6.61495 13.158 7.45289 14.0818 7.67359 15.2435L9.14723 14.9635C8.82385 13.2614 7.58889 11.8785 5.93884 11.4006L5.52156 12.8414ZM5.93884 21.5041C7.58889 21.0262 8.82385 19.6433 9.14723 17.9411L7.67359 17.6612C7.45289 18.8228 6.61495 19.7467 5.52156 20.0633L5.93884 21.5041ZM4.50968 20.25C3.55397 20.25 2.75 19.4524 2.75001 18.432L1.25001 18.432C1.25 20.2482 2.69327 21.75 4.50968 21.75L4.50968 20.25ZM21.25 14.4727V18.432H22.75V14.4727H21.25ZM1.25001 14.4727L1.25001 18.432L2.75001 18.432L2.75001 14.4727L1.25001 14.4727Z" fill="black"/>
<path d="M15.5896 17.8008L16.3264 17.6608L16.3264 17.6608L15.5896 17.8008ZM15.5896 15.1031L14.8528 14.9632L15.5896 15.1031ZM18.5607 12.0363L18.3521 11.3159L18.3521 11.3159L18.5607 12.0363ZM19.4903 11.9043L19.4903 12.6543L19.4903 11.9043ZM19.4903 20.9996L19.4903 21.7496L19.4903 20.9996ZM18.5607 20.8676L18.7694 20.1472L18.7694 20.1472L18.5607 20.8676ZM22 14.4723L21.25 14.4723V14.4723H22ZM18.2698 12.1206L18.4784 12.841L18.4784 12.841L18.2698 12.1206ZM18.2698 20.7833L18.0611 21.5037L18.0611 21.5037L18.2698 20.7833ZM22 18.4316L21.25 18.4316L21.25 18.4316L22 18.4316ZM8.41041 17.8008L7.67359 17.6608L8.41041 17.8008ZM8.41041 15.1031L7.67359 15.2431L8.41041 15.1031ZM5.43924 12.0363L5.2306 12.7567L5.23061 12.7567L5.43924 12.0363ZM4.50968 11.9043L4.50968 12.6543L4.50968 11.9043ZM4.50968 20.9996L4.50968 21.7496L4.50968 20.9996ZM5.43924 20.8676L5.64788 21.588L5.64789 21.588L5.43924 20.8676ZM2.00001 14.4723L2.75001 14.4723L2.75001 14.4723L2.00001 14.4723ZM5.7302 12.1206L5.93884 11.4002L5.93884 11.4002L5.7302 12.1206ZM5.7302 20.7833L5.52156 20.0629L5.52156 20.0629L5.7302 20.7833ZM2.00001 18.4316L2.75001 18.4316L2.75001 18.4316L2.00001 18.4316ZM18.7694 20.1472L18.4784 20.0629L18.0611 21.5037L18.3521 21.588L18.7694 20.1472ZM18.4784 12.841L18.7694 12.7567L18.3521 11.3159L18.0611 11.4002L18.4784 12.841ZM16.3264 17.6608C16.1747 16.8624 16.1747 16.0415 16.3264 15.2431L14.8528 14.9632C14.6659 15.9465 14.6659 16.9574 14.8528 17.9408L16.3264 17.6608ZM18.7694 12.7567C19.0041 12.6887 19.2467 12.6543 19.4903 12.6543L19.4903 11.1543C19.1053 11.1543 18.7222 11.2087 18.3521 11.3159L18.7694 12.7567ZM19.4903 20.2496C19.2467 20.2496 19.0041 20.2152 18.7694 20.1472L18.3521 21.588C18.7222 21.6952 19.1053 21.7496 19.4903 21.7496L19.4903 20.2496ZM19.4903 12.6543C20.446 12.6543 21.25 13.4519 21.25 14.4723L22.75 14.4723C22.75 12.6561 21.3067 11.1543 19.4903 11.1543L19.4903 12.6543ZM18.0611 11.4002C16.4111 11.8781 15.1761 13.261 14.8528 14.9632L16.3264 15.2431C16.5471 14.0815 17.385 13.1576 18.4784 12.841L18.0611 11.4002ZM18.4784 20.0629C17.385 19.7463 16.5471 18.8225 16.3264 17.6608L14.8528 17.9408C15.1761 19.6429 16.4111 21.0258 18.0611 21.5037L18.4784 20.0629ZM19.4903 21.7496C21.3067 21.7496 22.75 20.2478 22.75 18.4316L21.25 18.4316C21.25 19.452 20.446 20.2496 19.4903 20.2496L19.4903 21.7496ZM5.64789 21.588L5.93885 21.5037L5.52156 20.0629L5.2306 20.1472L5.64789 21.588ZM5.93884 11.4002L5.64788 11.3159L5.23061 12.7567L5.52157 12.841L5.93884 11.4002ZM9.14723 17.9408C9.33405 16.9574 9.33405 15.9465 9.14723 14.9632L7.67359 15.2431C7.82526 16.0415 7.82526 16.8624 7.67359 17.6608L9.14723 17.9408ZM5.64788 11.3159C5.27776 11.2087 4.89472 11.1543 4.50968 11.1543L4.50968 12.6543C4.75328 12.6543 4.99586 12.6887 5.2306 12.7567L5.64788 11.3159ZM4.50968 21.7496C4.89472 21.7496 5.27776 21.6952 5.64788 21.588L5.2306 20.1472C4.99586 20.2152 4.75328 20.2496 4.50968 20.2496L4.50968 21.7496ZM4.50968 11.1543C2.69327 11.1543 1.25 12.6561 1.25001 14.4723L2.75001 14.4723C2.75 13.4519 3.55398 12.6543 4.50968 12.6543L4.50968 11.1543ZM5.52156 12.841C6.61495 13.1576 7.45289 14.0814 7.67359 15.2431L9.14723 14.9632C8.82385 13.261 7.58889 11.8781 5.93884 11.4002L5.52156 12.841ZM5.93884 21.5037C7.58889 21.0258 8.82385 19.6429 9.14723 17.9408L7.67359 17.6608C7.45289 18.8225 6.61495 19.7463 5.52156 20.0629L5.93884 21.5037ZM4.50968 20.2496C3.55397 20.2496 2.75 19.452 2.75001 18.4316L1.25001 18.4316C1.25 20.2478 2.69327 21.7496 4.50968 21.7496L4.50968 20.2496ZM21.25 14.4723V18.4316H22.75V14.4723H21.25ZM1.25001 14.4723L1.25001 18.4316L2.75001 18.4316L2.75001 14.4723L1.25001 14.4723Z" fill="#23408F"/>
</svg>
