<svg width="20" height="20" viewBox="0 0 20 20" fill="none" xmlns="http://www.w3.org/2000/svg">
<path d="M3.31991 9.67564L3.92162 9.22793L3.31991 9.67564ZM7.59831 15.4257L8.20003 14.978L8.20003 14.978L7.59831 15.4257ZM12.4017 15.4257L11.8 14.978L11.8 14.978L12.4017 15.4257ZM16.6801 9.67564L16.0784 9.22793L16.0784 9.22793L16.6801 9.67564ZM16.6801 4.64938L16.0784 5.09709L16.0784 5.09709L16.6801 4.64938ZM10 5.45729L9.35553 5.84091C9.49076 6.06809 9.73562 6.20729 10 6.20729C10.2644 6.20729 10.5092 6.06809 10.6445 5.84091L10 5.45729ZM3.31991 4.64938L3.92163 5.09709L3.92163 5.09709L3.31991 4.64938ZM2.7182 10.1233L6.9966 15.8734L8.20003 14.978L3.92162 9.22793L2.7182 10.1233ZM6.9966 15.8734C8.52776 17.9313 11.4722 17.9313 13.0034 15.8734L11.8 14.978C10.8686 16.2298 9.13139 16.2298 8.20003 14.978L6.9966 15.8734ZM13.0034 15.8734L17.2818 10.1234L16.0784 9.22793L11.8 14.978L13.0034 15.8734ZM17.2818 10.1234C18.5727 8.38836 18.5727 5.93666 17.2818 4.20167L16.0784 5.09709C16.9739 6.30062 16.9739 8.0244 16.0784 9.22793L17.2818 10.1234ZM17.2818 4.20167C16.2776 2.85199 14.6483 2.42574 13.1542 2.634C11.6643 2.84167 10.1785 3.69117 9.35553 5.07367L10.6445 5.84091C11.2025 4.90349 12.2565 4.27364 13.3613 4.11963C14.462 3.96621 15.4823 4.29597 16.0784 5.09709L17.2818 4.20167ZM10.6445 5.07367C9.82154 3.69117 8.33565 2.84167 6.84577 2.634C5.35172 2.42574 3.72244 2.85199 2.7182 4.20167L3.92163 5.09709C4.5177 4.29597 5.53801 3.96621 6.63869 4.11963C7.74354 4.27364 8.79754 4.90349 9.35553 5.84091L10.6445 5.07367ZM2.7182 4.20167C1.42727 5.93666 1.42726 8.38835 2.7182 10.1233L3.92162 9.22793C3.02612 8.0244 3.02613 6.30062 3.92163 5.09709L2.7182 4.20167Z" fill="#23408F"/>
<path d="M3.31991 9.67564L2.7182 10.1233L2.7182 10.1233L3.31991 9.67564ZM7.59831 15.4257L8.20003 14.978L8.20003 14.978L7.59831 15.4257ZM12.4017 15.4257L11.8 14.978L11.8 14.978L12.4017 15.4257ZM17.2818 10.1234C17.5291 9.79103 17.4601 9.32119 17.1278 9.07393C16.7955 8.82667 16.3256 8.89562 16.0784 9.22793L17.2818 10.1234ZM9.35553 5.84091C9.5674 6.19684 10.0277 6.31362 10.3836 6.10176C10.7395 5.88989 10.8563 5.4296 10.6445 5.07367L9.35553 5.84091ZM3.31991 4.64938L3.92163 5.09709L3.92163 5.09709L3.31991 4.64938ZM2.7182 10.1233L6.9966 15.8734L8.20003 14.978L3.92162 9.22793L2.7182 10.1233ZM6.9966 15.8734C8.52776 17.9313 11.4722 17.9313 13.0034 15.8734L11.8 14.978C10.8686 16.2298 9.13139 16.2298 8.20003 14.978L6.9966 15.8734ZM13.0034 15.8734L17.2818 10.1234L16.0784 9.22793L11.8 14.978L13.0034 15.8734ZM10.6445 5.07367C9.82154 3.69117 8.33565 2.84167 6.84577 2.634C5.35172 2.42574 3.72244 2.85199 2.7182 4.20167L3.92163 5.09709C4.5177 4.29597 5.53801 3.96621 6.63869 4.11963C7.74354 4.27364 8.79754 4.90349 9.35553 5.84091L10.6445 5.07367ZM2.7182 4.20167C1.42727 5.93666 1.42726 8.38835 2.7182 10.1233L3.92162 9.22793C3.02612 8.0244 3.02613 6.30062 3.92163 5.09709L2.7182 4.20167Z" fill="black"/>
</svg>
