<svg width="20" height="20" viewBox="0 0 20 20" fill="none" xmlns="http://www.w3.org/2000/svg">
<path d="M18.75 18.1249C18.5175 18.1249 18.2983 17.9949 18.1909 17.7794C17.0337 15.465 15.9381 13.2744 10 13.1322V17.4999C10 17.7483 9.85297 17.9728 9.62578 18.0724C9.39859 18.1719 9.13328 18.1278 8.95078 17.9588L0.825781 10.4588C0.697656 10.3411 0.625 10.1744 0.625 9.99985C0.625 9.82532 0.697656 9.6586 0.825781 9.54079L8.95078 2.04079C9.13328 1.87173 9.39937 1.82845 9.62578 1.9272C9.85297 2.02688 10 2.25142 10 2.49985V6.8822C18.6566 7.09704 19.375 11.8205 19.375 17.4999C19.375 17.7897 19.1755 18.0413 18.8934 18.1084C18.8458 18.1194 18.7977 18.1249 18.75 18.1249ZM2.17156 9.99985L8.75 16.0722V12.4999C8.75 12.1544 9.02953 11.8749 9.375 11.8749C14.5575 11.8749 16.7639 13.3214 18.0584 15.0603C17.7661 10.7952 16.2794 8.12485 9.375 8.12485C9.02953 8.12485 8.75 7.84532 8.75 7.49985V3.92751L2.17156 9.99985Z" fill="black"/>
</svg>
