<svg width="124" height="102" viewBox="0 0 124 102" fill="none" xmlns="http://www.w3.org/2000/svg">
<path d="M66.6648 87.5702L66.355 87.5697L62 92.4515L57.6341 87.5574L57.4125 87.5571C51.6351 88.5298 47.4688 91.2892 47.4688 94.5413C47.4688 98.6052 53.9746 101.9 62 101.9C70.0254 101.9 76.5312 98.6052 76.5312 94.5413C76.5312 91.3038 72.4019 88.5545 66.6648 87.5702Z" fill="#D1DEFF"/>
<path d="M52.922 45.7572L48.637 40.1881C47.7862 39.0825 48.311 37.4671 49.6493 37.0728L56.3896 35.0859L60.3622 29.2894C61.151 28.1386 62.8493 28.1386 63.6378 29.2894L67.6104 35.0859L74.3507 37.0728C75.6888 37.4674 76.2136 39.0825 75.3631 40.1881L71.0781 45.7572L71.2711 52.7816C71.3093 54.1761 69.9354 55.1744 68.6211 54.707L61.9999 52.3527L55.379 54.707C54.0646 55.1744 52.6905 54.1761 52.729 52.7816L52.922 45.7572Z" fill="#D1DEFF"/>
<path d="M16.1837 45.7572L11.8987 40.1881C11.0479 39.0825 11.5727 37.4671 12.911 37.0728L19.6514 35.0859L23.624 29.2894C24.4128 28.1386 26.111 28.1386 26.8995 29.2894L30.8721 35.0859L37.6125 37.0728C38.9505 37.4674 39.4754 39.0825 38.6248 40.1881L34.3398 45.7572L34.5328 52.7816C34.5711 54.1761 33.1971 55.1744 31.8828 54.707L25.2619 52.3527L18.6409 54.707C17.3266 55.1744 15.9524 54.1761 15.9909 52.7816L16.1837 45.7572Z" fill="#D1DEFF"/>
<path d="M89.6608 45.7572L85.3757 40.1881C84.5249 39.0825 85.0498 37.4671 86.3881 37.0728L93.1284 35.0859L97.101 29.2894C97.8898 28.1386 99.588 28.1386 100.377 29.2894L104.349 35.0859L111.09 37.0728C112.428 37.4674 112.952 39.0825 112.102 40.1881L107.817 45.7572L108.01 52.7816C108.048 54.1761 106.674 55.1744 105.36 54.707L98.7389 52.3527L92.118 54.707C90.8036 55.1744 89.4295 54.1761 89.468 52.7816L89.6608 45.7572Z" fill="#D1DEFF"/>
<path d="M112.764 0.100098H11.2363C5.04041 0.100098 0 5.1405 0 11.3364V73.7546C0 79.9505 5.04041 84.9912 11.2363 84.9912H49.4375C51.1287 84.9912 52.7443 85.7148 53.8703 86.9769L60.1926 94.064C60.652 94.5789 61.3095 94.8736 61.9998 94.8736C62.69 94.8736 63.3475 94.5791 63.807 94.064L70.1293 86.9769C71.2552 85.7148 72.8708 84.9912 74.562 84.9912H112.763C118.959 84.9912 124 79.9505 124 73.7546V11.3364C124 5.1405 118.959 0.100098 112.764 0.100098ZM119.156 73.7544C119.156 77.2794 116.289 80.1472 112.764 80.1472H74.5625C71.4923 80.1472 68.5592 81.461 66.5154 83.7521L62 88.8136L57.4847 83.7521C55.4408 81.4613 52.5077 80.1472 49.4375 80.1472H11.2363C7.71149 80.1472 4.84375 77.2794 4.84375 73.7544V11.3364C4.84375 7.81159 7.71149 4.94385 11.2363 4.94385H112.764C116.289 4.94385 119.156 7.81159 119.156 11.3364V73.7544Z" fill="#23408F"/>
<path d="M98.029 67.9414H25.9709C24.6333 67.9414 23.5491 69.0257 23.5491 70.3633C23.5491 71.7009 24.6333 72.7852 25.9709 72.7852H98.0288C99.3664 72.7852 100.451 71.7009 100.451 70.3633C100.451 69.0257 99.3666 67.9414 98.029 67.9414Z" fill="#23408F"/>
<path d="M98.029 9.82617H25.9709C24.6333 9.82617 23.5491 10.9104 23.5491 12.248C23.5491 13.5856 24.6333 14.6699 25.9709 14.6699H98.0288C99.3664 14.6699 100.451 13.5856 100.451 12.248C100.451 10.9104 99.3666 9.82617 98.029 9.82617Z" fill="#23408F"/>
</svg>
