<svg width="24" height="24" viewBox="0 0 24 24" fill="none" xmlns="http://www.w3.org/2000/svg">
<g clip-path="url(#clip0_244_3926)">
<path d="M10.6857 8.35992L9.99302 8.07236L9.99302 8.07236L10.6857 8.35992ZM9.76791 9.05796L9.85237 9.80319L9.85237 9.80319L9.76791 9.05796ZM9.00929 9.14393L8.92483 8.3987L8.92483 8.3987L9.00929 9.14393ZM8.35523 11.1328L8.87676 10.5938L8.35523 11.1328ZM9.33053 12.8242L8.59475 12.6789L8.59475 12.6789L9.33053 12.8242ZM8.99934 11.7561L9.52087 11.2171L8.99934 11.7561ZM10.8883 14.819L10.4829 14.188L10.4829 14.188L10.8883 14.819ZM9.17502 13.6115L9.9108 13.7568L9.9108 13.7568L9.17502 13.6115ZM12.6034 14.4921L12.198 15.1231L12.198 15.1231L12.6034 14.4921ZM11.3971 14.4921L11.8025 15.1231L11.8025 15.1231L11.3971 14.4921ZM13.1122 14.819L13.5176 14.188L13.5176 14.188L13.1122 14.819ZM14.8255 13.6115L15.5613 13.4661L15.5613 13.4661L14.8255 13.6115ZM15.0011 11.7561L15.5227 12.2951L15.5227 12.2951L15.0011 11.7561ZM14.67 12.8242L13.9342 12.9696L13.9342 12.9696L14.67 12.8242ZM15.6453 11.1328L15.1237 10.5938L15.1237 10.5938L15.6453 11.1328ZM14.9912 9.14393L15.0757 8.3987L15.0757 8.3987L14.9912 9.14393ZM13.3148 8.35992L12.6221 8.64749L12.6221 8.64749L13.3148 8.35992ZM14.2326 9.05796L14.1481 9.80319L14.1481 9.80319L14.2326 9.05796ZM13.0429 7.70509L13.7356 7.41753L13.7356 7.41753L13.0429 7.70509ZM10.9575 7.70509L11.6502 7.99266L11.6502 7.99266L10.9575 7.70509ZM12.3503 7.99266L12.6221 8.64749L14.0075 8.07236L13.7356 7.41753L12.3503 7.99266ZM15.1237 10.5938L14.4796 11.2171L15.5227 12.2951L16.1668 11.6718L15.1237 10.5938ZM13.5176 14.188L13.0088 13.8611L12.198 15.1231L12.7067 15.45L13.5176 14.188ZM11.3784 8.64749L11.6502 7.99266L10.2649 7.41753L9.99302 8.07236L11.3784 8.64749ZM9.09374 9.88916L9.85237 9.80319L9.68346 8.31273L8.92483 8.3987L9.09374 9.88916ZM14.1481 9.80319L14.9068 9.88916L15.0757 8.3987L14.317 8.31273L14.1481 9.80319ZM13.9342 12.9696L14.0897 13.7568L15.5613 13.4661L15.4057 12.6789L13.9342 12.9696ZM10.9917 13.8611L10.4829 14.188L11.2938 15.45L11.8025 15.1231L10.9917 13.8611ZM9.9108 13.7568L10.0663 12.9696L8.59475 12.6789L8.43923 13.4661L9.9108 13.7568ZM9.52087 11.2171L8.87676 10.5938L7.8337 11.6718L8.47781 12.2951L9.52087 11.2171ZM9.99302 8.07236C9.93538 8.21118 9.8137 8.29797 9.68346 8.31273L9.85237 9.80319C10.5362 9.7257 11.1163 9.27869 11.3784 8.64749L9.99302 8.07236ZM8.92483 8.3987C7.31294 8.58137 6.69591 10.5709 7.8337 11.6718L8.87676 10.5938C8.61514 10.3407 8.78952 9.92364 9.09374 9.88916L8.92483 8.3987ZM10.0663 12.9696C10.1922 12.3324 9.98923 11.6703 9.52087 11.2171L8.47781 12.2951C8.57586 12.3899 8.62318 12.5349 8.59475 12.6789L10.0663 12.9696ZM10.4829 14.188C10.2321 14.3492 9.83386 14.1463 9.9108 13.7568L8.43923 13.4661C8.12246 15.0697 9.85939 16.3716 11.2938 15.45L10.4829 14.188ZM13.0088 13.8611C12.3932 13.4655 11.6073 13.4655 10.9917 13.8611L11.8025 15.1231C11.9242 15.0449 12.0763 15.0449 12.198 15.1231L13.0088 13.8611ZM12.7067 15.45C14.1411 16.3716 15.878 15.0697 15.5613 13.4661L14.0897 13.7568C14.1666 14.1463 13.7684 14.3492 13.5176 14.188L12.7067 15.45ZM14.4796 11.2171C14.0113 11.6703 13.8083 12.3324 13.9342 12.9696L15.4057 12.6789C15.3773 12.5349 15.4246 12.3899 15.5227 12.2951L14.4796 11.2171ZM16.1668 11.6718C17.3046 10.5709 16.6876 8.58137 15.0757 8.3987L14.9068 9.88916C15.211 9.92364 15.3853 10.3407 15.1237 10.5938L16.1668 11.6718ZM12.6221 8.64749C12.8842 9.27869 13.4643 9.7257 14.1481 9.80319L14.317 8.31273C14.1868 8.29797 14.0651 8.21118 14.0075 8.07236L12.6221 8.64749ZM13.7356 7.41753C13.0894 5.86083 10.9111 5.86082 10.2649 7.41753L11.6502 7.99266C11.7846 7.66911 12.2159 7.66911 12.3503 7.99266L13.7356 7.41753Z" fill="#23408F"/>
</g>
<path d="M12.3699 21.2385L11.6723 20.9633L12.3699 21.2385ZM2.32859 14.9941L3.05922 14.8247L2.32859 14.9941ZM2.32461 9.26416L1.59398 9.09481L1.59398 9.09481L2.32461 9.26416ZM21.7034 9.52198L22.434 9.35262L22.434 9.35262L21.7034 9.52198ZM21.7034 14.7191L20.9727 14.5497L20.9727 14.5497L21.7034 14.7191ZM8.84252 22.7939L8.54976 23.4844L8.54977 23.4844L8.84252 22.7939ZM9.28205 2.31665L9.45527 3.04637L9.45527 3.04637L9.28205 2.31665ZM14.6862 2.31665L14.5129 3.04637L14.5129 3.04637L14.6862 2.31665ZM8.7035 22.7349L8.99626 22.0444L8.99626 22.0444L8.7035 22.7349ZM15.1345 2.42308L15.3078 1.69336L15.3078 1.69336L15.1345 2.42308ZM21.5988 9.07102L20.8682 9.24038L20.8682 9.24038L21.5988 9.07102ZM9.01964 2.37894L8.84642 1.64922L8.84641 1.64922L9.01964 2.37894ZM9.19286 3.10866L9.45527 3.04637L9.10882 1.58693L8.84642 1.64922L9.19286 3.10866ZM14.5129 3.04637L14.9613 3.1528L15.3078 1.69336L14.8594 1.58693L14.5129 3.04637ZM9.13527 22.1034L8.99626 22.0444L8.41075 23.4254L8.54976 23.4844L9.13527 22.1034ZM20.8682 9.24038L20.9727 9.69133L22.434 9.35262L22.3295 8.90167L20.8682 9.24038ZM14.5557 19.8312H13.307V21.3312H14.5557V19.8312ZM13.307 19.8312C12.5709 19.8312 11.9344 20.2988 11.6723 20.9633L13.0676 21.5137C13.1172 21.3879 13.223 21.3312 13.307 21.3312V19.8312ZM3.05922 14.8247C2.64967 13.0578 2.64618 11.1983 3.05524 9.43351L1.59398 9.09481C1.13278 11.0845 1.13724 13.1758 1.59796 15.1634L3.05922 14.8247ZM20.9727 9.69133C21.3428 11.2877 21.3428 12.9533 20.9727 14.5497L22.434 14.8884C22.8557 13.0692 22.8557 11.1719 22.434 9.35262L20.9727 9.69133ZM8.54977 23.4844C10.3435 24.2449 12.357 23.3155 13.0676 21.5137L11.6723 20.9633C11.2503 22.0331 10.1018 22.5131 9.13527 22.1034L8.54977 23.4844ZM9.45527 3.04637C11.1199 2.65121 12.8483 2.65121 14.5129 3.04637L14.8594 1.58693C12.9669 1.13769 11.0013 1.13769 9.10882 1.58693L9.45527 3.04637ZM8.99626 22.0444C6.03868 20.7905 3.81595 18.0894 3.05922 14.8247L1.59796 15.1634C2.45766 18.8724 4.98976 21.975 8.41075 23.4254L8.99626 22.0444ZM20.9727 14.5497C20.2499 17.6683 17.5834 19.8312 14.5557 19.8312V21.3312C18.3203 21.3312 21.5625 18.6482 22.434 14.8884L20.9727 14.5497ZM14.9613 3.1528C17.8629 3.84159 20.1611 6.18988 20.8682 9.24038L22.3295 8.90167C21.4998 5.32248 18.7894 2.51983 15.3078 1.69336L14.9613 3.1528ZM8.84641 1.64922C5.25085 2.50273 2.45103 5.3973 1.59398 9.09481L3.05524 9.43351C3.78974 6.2647 6.17733 3.82449 9.19286 3.10866L8.84641 1.64922Z" fill="black"/>
<defs>
<clipPath id="clip0_244_3926">
<rect width="10" height="10" fill="white" transform="translate(7.00024 6)"/>
</clipPath>
</defs>
</svg>
