<svg width="18" height="18" viewBox="0 0 18 18" fill="none" xmlns="http://www.w3.org/2000/svg">
<g clip-path="url(#clip0_214_5155)">
<path d="M12.3701 4.75896C12.0209 4.40588 11.452 4.40142 11.0973 4.74904L4.44483 11.3239L1.55292 8.33011C1.208 7.97062 0.636985 7.95882 0.277533 8.30374C-0.0819574 8.64865 -0.0937568 9.21967 0.25116 9.57912C0.252723 9.58072 0.254247 9.58233 0.25581 9.58393L3.78187 13.2381C3.95062 13.4102 4.18126 13.5077 4.42232 13.5087H4.43225C4.66874 13.5079 4.89551 13.4143 5.06367 13.248L12.362 6.03173C12.7146 5.68205 12.7182 5.11314 12.3701 4.75896Z" fill="#23408F"/>
<path d="M9.19407 13.2376C9.36239 13.4094 9.59228 13.5068 9.83272 13.5082H9.84265C10.0791 13.5075 10.3059 13.4139 10.4741 13.2476L17.7724 6.0313C18.1032 5.6588 18.0694 5.08868 17.697 4.75787C17.3593 4.45796 16.8519 4.45402 16.5096 4.74861L9.85976 11.3235L9.62252 11.0773C9.27764 10.7178 8.70662 10.7059 8.34713 11.0508C7.98764 11.3957 7.9758 11.9667 8.32072 12.3262C8.32228 12.3279 8.32385 12.3295 8.32541 12.3311L9.19407 13.2376Z" fill="#23408F"/>
</g>
<defs>
<clipPath id="clip0_214_5155">
<rect width="18" height="18" fill="white"/>
</clipPath>
</defs>
</svg>
