<svg width="43" height="43" viewBox="0 0 43 43" fill="none" xmlns="http://www.w3.org/2000/svg">
<g clip-path="url(#clip0_214_5167)">
<path d="M12.5574 23.6321L10.6658 25.2666" stroke="white" stroke-width="1.5" stroke-linecap="round"/>
<path d="M16.9878 29.716L16.042 30.5332" stroke="white" stroke-width="1.5" stroke-linecap="round"/>
<path d="M13.5904 27.6956L11.6987 29.3301" stroke="white" stroke-width="1.5" stroke-linecap="round"/>
<path d="M21.6983 21.7056C22.0117 21.4348 22.0463 20.9612 21.7754 20.6478C21.5046 20.3343 21.031 20.2998 20.7176 20.5706L21.6983 21.7056ZM19.0756 23.9718L21.6983 21.7056L20.7176 20.5706L18.0949 22.8368L19.0756 23.9718Z" fill="white"/>
<path d="M15.1256 14.4892L14.9618 13.7573L14.9618 13.7573L15.1256 14.4892ZM27.1717 11.7927L27.3355 12.5245L27.3355 12.5245L27.1717 11.7927ZM31.3105 16.5895L32.0104 16.8589L32.0104 16.8589L31.3105 16.5895ZM26.8825 28.094L26.1826 27.8246L26.1826 27.8246L26.8825 28.094ZM20.603 27.9027L19.9187 28.2096L19.9187 28.2096L20.603 27.9027ZM14.3956 20.729L13.9919 21.3611L14.3956 20.729ZM18.7076 23.6773L19.3919 23.3703L18.7076 23.6773ZM15.2894 15.2211L27.3355 12.5245L27.0078 11.0608L14.9618 13.7573L15.2894 15.2211ZM30.6105 16.3201L26.1826 27.8246L27.5825 28.3634L32.0104 16.8589L30.6105 16.3201ZM21.2873 27.5957L19.3919 23.3703L18.0233 23.9843L19.9187 28.2096L21.2873 27.5957ZM18.7371 22.6117L14.7992 20.0969L13.9919 21.3611L17.9297 23.8759L18.7371 22.6117ZM26.1826 27.8246C25.7773 28.8775 24.8422 29.3844 23.8438 29.354C22.8383 29.3234 21.8012 28.7412 21.2873 27.5957L19.9187 28.2096C20.6801 29.9069 22.2494 30.8061 23.7982 30.8533C25.3541 30.9007 26.921 30.0819 27.5825 28.3634L26.1826 27.8246ZM27.3355 12.5245C29.4497 12.0513 31.3886 14.2987 30.6105 16.3201L32.0104 16.8589C33.2188 13.7194 30.2906 10.3259 27.0078 11.0608L27.3355 12.5245ZM14.9618 13.7573C13.1644 14.1597 12.1246 15.5899 11.9436 17.1363C11.7636 18.6754 12.4238 20.3597 13.9919 21.3611L14.7992 20.0969C13.7408 19.4209 13.3166 18.3097 13.4335 17.3106C13.5495 16.3186 14.1881 15.4676 15.2894 15.2211L14.9618 13.7573ZM19.3919 23.3703C19.2522 23.059 19.0246 22.7954 18.7371 22.6117L17.9297 23.8759C17.9708 23.9022 18.0033 23.9398 18.0233 23.9843L19.3919 23.3703Z" fill="white"/>
</g>
<defs>
<clipPath id="clip0_214_5167">
<rect width="30" height="30" fill="white" transform="translate(0 19.6143) rotate(-40.8287)"/>
</clipPath>
</defs>
</svg>
